# xmcd
#
# Track frame offsets:
#	150
#	17831
#	36518
#	53716
#	70053
#	87600
#	100024
#	113279
#	132263
#	150484
#	166432
#	170566
#	189489
#	209259
#
# Disc length: 3084 seconds
#
# Revision: 1
# Processed by: cddbd v1.5.2PL0 Copyright (c) Steve Scherf et al.
# Submitted via: audiograbber 1.83.01
#
DISCID=b60c0a0e
DTITLE=Tyrese - Open Invitation
DYEAR=2011
DGENRE=R&B
TTITLE0=Tyrese, Jay Rock - I'm Home
TTITLE1=Tyrese, R. Kelly, Rick Ross - I Gotta Chick
TTITLE2=Tyrese - Stay
TTITLE3=Tyrese - Best Of Me
TTITLE4=Tyrese - Nothing On You
TTITLE5=Tyrese - One Night
TTITLE6=Tyrese - It's All On Me
TTITLE7=Tyrese, Ludacris - Too Easy
TTITLE8=Tyrese - Takeover
TTITLE9=Tyrese - I Miss That Girl
TTITLE10=Tyrese - Interlude
TTITLE11=Tyrese - Make Love
TTITLE12=Tyrese, Candace - Angel
TTITLE13=Tyrese - Walk... A Poem For My Fans
EXTD=www.RapMusicGuide.com\n
EXTT0=
EXTT1=
EXTT2=
EXTT3=
EXTT4=
EXTT5=
EXTT6=
EXTT7=
EXTT8=
EXTT9=
EXTT10=
EXTT11=
EXTT12=
EXTT13=
PLAYORDER=
